<svg viewBox="0 0 10 16" version="1.1" xmlns="http://www.w3.org/2000/svg" xmlns:xlink="http://www.w3.org/1999/xlink">

	<path d="M9.76828848,0.387692028 C10.0969331,0.807072352 10.0701908,1.4121839 9.72486658,1.79774524 L9.63191971,1.88932708 L2.60314933,7.99997043 L9.63191971,14.1106729 L9.72486658,14.2022548 C10.0701908,14.5878161 10.0969331,15.1929276 9.76828848,15.612308 C9.43964385,16.0316883 8.87049016,16.1187428 8.44560732,15.8347055 L8.34261493,15.7559426 L0.344500922,8.80217763 L0.231196828,8.67900012 L0.231196828,8.67900012 L0.183671468,8.61342309 L0.183671468,8.61342309 L0.126371441,8.51745932 L0.126371441,8.51745932 L0.0742162067,8.40264341 L0.0742162067,8.40264341 L0.0428510209,8.30965878 L0.0428510209,8.30965878 L0.0150752223,8.18734748 L0.0150752223,8.18734748 L0.00150811751,8.06813708 L0.00150811751,8.06813708 L0,7.96643645 L0,7.96643645 L0.0100362051,7.84646714 L0.0100362051,7.84646714 L0.0276039419,7.74948028 L0.0276039419,7.74948028 L0.0528977712,7.65741823 L0.0528977712,7.65741823 L0.0732343758,7.59988896 L0.0732343758,7.59988896 L0.12634151,7.48257069 L0.12634151,7.48257069 L0.178671696,7.39374785 L0.274618725,7.26894691 L0.274618725,7.26894691 L0.342525316,7.19965604 L0.342525316,7.19965604 L8.34261493,0.244057372 C8.773961,-0.130944082 9.4122568,-0.0666366553 9.76828848,0.387692028 Z" id="Icon-Arrow-Hover" fill="#FFFFFF" transform="translate(5.000000, 8.000000) scale(-1, 1) translate(-5.000000, -8.000000) "></path>
</svg>